<?xml version="1.0" encoding="utf-8"?>
<!-- Generator: Adobe Illustrator 18.1.0, SVG Export Plug-In . SVG Version: 6.00 Build 0)  -->
<svg version="1.1" id="Layer_1" xmlns="http://www.w3.org/2000/svg" xmlns:xlink="http://www.w3.org/1999/xlink" x="0px" y="0px"
	 width="58.8px" height="58.8px" viewBox="4 -4.8 58.8 58.8" enable-background="new 4 -4.8 58.8 58.8" xml:space="preserve">
<path stroke="#000000" stroke-miterlimit="10" d="M33.3,53.5c-0.4,0-0.9,0-1.3,0c-1,0-2-0.1-2.9-0.3c-2.6-0.4-5.1-1.1-7.5-2.2
	c-2.9-1.3-5.5-3-7.8-5.1c-2.4-2.2-4.4-4.8-5.9-7.7c-1.3-2.4-2.3-5.1-2.8-7.8c-0.6-3.1-0.8-6.3-0.4-9.5c0.4-3,1.2-5.8,2.5-8.5
	c1.4-3.1,3.5-5.9,5.9-8.3c2.6-2.5,5.6-4.6,8.9-6c1.8-0.8,3.7-1.4,5.6-1.8c1.8-0.4,3.6-0.6,5.4-0.6s3.7,0.1,5.5,0.4
	c1.9,0.3,3.8,0.9,5.6,1.6C47.4-1,50.5,1,53.2,3.5c2.5,2.4,4.6,5.2,6.2,8.4c1.3,2.7,2.2,5.5,2.6,8.5c0.5,3.1,0.4,6.3-0.1,9.3
	c-0.5,2.7-1.4,5.4-2.6,7.9c-1.5,2.9-3.4,5.5-5.8,7.8c-2.3,2.2-5,4.1-7.9,5.4c-2.4,1.1-4.9,1.9-7.5,2.3c-0.9,0.1-1.8,0.3-2.7,0.3
	c-0.5,0-1,0.1-1.5,0.1C33.7,53.5,33.5,53.5,33.3,53.5z M33.3,50.7c0.4,0,0.8,0,1.2,0c0.9,0,1.8-0.1,2.6-0.2c2.3-0.3,4.6-1,6.8-2
	c2.6-1.2,5.1-2.8,7.2-4.7c2.1-2,3.9-4.3,5.3-6.9c1.1-2.2,2-4.5,2.5-6.9c0.6-2.8,0.7-5.7,0.3-8.6c-0.3-2.7-1.1-5.3-2.2-7.7
	c-1.3-2.8-3.1-5.4-5.3-7.5c-2.3-2.3-5-4.1-8-5.4c-1.6-0.7-3.3-1.2-5-1.6c-1.6-0.3-3.3-0.5-4.9-0.5c-1.7,0-3.3,0.1-5,0.4
	s-3.4,0.8-5.1,1.5c-3,1.2-5.8,3-8.2,5.2c-2.3,2.2-4.2,4.7-5.6,7.5c-1.2,2.4-2,5-2.4,7.6c-0.4,2.8-0.4,5.8,0.2,8.6
	c0.5,2.5,1.3,4.9,2.4,7.1c1.3,2.6,3.1,4.9,5.1,6.9s4.4,3.6,6.9,4.8c2.1,1,4.4,1.7,6.7,2.1c0.8,0.1,1.6,0.2,2.4,0.3
	c0.4,0,0.9,0.1,1.3,0.1C32.9,50.7,33.1,50.7,33.3,50.7z"/>
<g>
	<path stroke="#000000" stroke-miterlimit="10" d="M33.3,26.2c-0.1,0-0.1,0-0.2,0c-0.1-0.1-0.3-0.1-0.4-0.1c-0.4-0.2-0.8-0.5-0.9-1
		c0-0.1-0.1-0.2-0.1-0.3v-0.1V3.3c0-0.1,0-0.1,0-0.2c0-0.2,0.1-0.3,0.1-0.4c0.1-0.2,0.2-0.3,0.3-0.5c0.1-0.1,0.2-0.2,0.4-0.3
		c0.4-0.2,1-0.2,1.4,0C34,2,34.2,2.1,34.3,2.2c0.2,0.2,0.4,0.5,0.4,0.8c0,0.1,0,0.2,0,0.2v0.1v21.3v0.1c0,0.1,0,0.2-0.1,0.3
		c-0.1,0.4-0.5,0.8-0.9,1c0.2,0.1,0.1,0.1-0.1,0.2c-0.1,0-0.1,0-0.2,0C33.4,26.2,33.3,26.2,33.3,26.2z"/>
	<g transform="matrix(2.83277e-16,1,-0.622237,1.76265e-16,81.1655,-0.0695371)">
		<path stroke="#000000" stroke-miterlimit="10" d="M24.6,78.4c-0.1,0-0.1,0-0.2,0c-0.1,0-0.2-0.1-0.3-0.1c-0.4-0.2-0.8-0.5-0.9-1
			c0-0.1-0.1-0.2-0.1-0.3v-0.1V55.5c0-0.1,0-0.1,0-0.2c0-0.2,0.1-0.3,0.1-0.4c0.1-0.2,0.2-0.3,0.3-0.5c0.1-0.1,0.2-0.2,0.4-0.3
			c0.4-0.2,1-0.2,1.4,0c0.1,0.1,0.3,0.2,0.4,0.3c0.2,0.2,0.4,0.5,0.4,0.8c0,0.1,0,0.2,0,0.2v0.1v21.4V77c0,0.1,0,0.2-0.1,0.3
			c-0.1,0.4-0.5,0.8-0.9,1c-0.1,0-0.2,0.1-0.3,0.1C24.7,78.4,24.7,78.4,24.6,78.4C24.7,78.4,24.7,78.4,24.6,78.4z"/>
	</g>
</g>
</svg>
