<?xml version="1.0" encoding="utf-8"?>
<!-- Generator: Adobe Illustrator 18.1.0, SVG Export Plug-In . SVG Version: 6.00 Build 0)  -->
<svg version="1.1" id="Layer_1" xmlns="http://www.w3.org/2000/svg" xmlns:xlink="http://www.w3.org/1999/xlink" x="0px" y="0px"
	 width="65.1px" height="65.4px" viewBox="103.1 -33.4 65.1 65.4" enable-background="new 103.1 -33.4 65.1 65.4"
	 xml:space="preserve">
<path stroke="#000000" stroke-miterlimit="10" d="M166.2,3.9c-0.8-0.8-1.7-1.2-2.7-1.5l2-2c2.1-2.1,2.1-5.5,0-7.6
	c-0.8-0.8-1.8-1.3-2.8-1.5c1.3-2.1,1.1-4.9-0.8-6.7c-1.6-1.6-4.1-2-6.1-1.1c0.5-0.8,0.8-1.7,0.8-2.7c0-3-2.4-5.4-5.4-5.4h-12
	c1.2-1.5,1.8-3.4,1.5-4.8c-0.8-3.5-4.8-3.5-6.1-3.5h-9c-12.1,0-22,9.9-22,22c0,8.3,4.6,15.6,11.5,19.3c-0.3,6,1.9,12,6.4,16.6
	c8.6,8.6,22.6,8.6,31.2,0l13.5-13.5C168.3,9.4,168.3,6,166.2,3.9z M106.1-10.9c0-10.8,8.8-19.6,19.6-19.6h9c3,0,3.5,0.8,3.7,1.6
	c0.1,0.6-0.1,1.7-1,2.7c-0.8,1-1.8,1.5-2.7,1.5h-6.3c-0.7,0-1.2,0.6-1.2,1.2c0,5.6-4.5,10.1-10.1,10.1c-0.7,0-1.2,0.6-1.2,1.2
	s0.6,1.2,1.2,1.2c6.5,0,11.9-5,12.5-11.3h21.8c1.6,0,2.9,1.3,2.9,2.9c0,0.6-0.2,1.1-0.5,1.5c-0.2-0.2-0.4-0.5-0.6-0.7
	c-2.1-2.1-5.5-2.1-7.6,0l-2.1,2.1h-7.3c0-0.4,0-0.8-0.1-1.2c-0.1-0.7-0.7-1.2-1.3-1.1c-0.7,0.1-1.2,0.7-1.1,1.3
	c0.1,0.8,0.1,1.6,0.2,2.5c-2.6-0.9-5,1.5-5.8,2.3l-6.3,6.3c-3.4,3.4-5.4,7.5-6.1,11.9C109.8,2.3,106.1-3.9,106.1-10.9z M136.2-12.6
	c0-0.4,0-0.8,0-1.3h4.7L137-9.9C136.9-10.9,136.6-11.8,136.2-12.6z M164.4,9.7l-13.5,13.5c-7.6,7.6-20,7.6-27.6,0
	c-7.6-7.6-7.6-20,0-27.7l6.3-6.3c2.1-2.1,3.1-1.9,3.7-1.5c0.5,0.3,1.1,1.3,1.2,2.7c0.1,1.2-0.2,2.3-0.8,3L128-0.9
	c-0.5,0.5-0.5,1.3,0,1.7c0.5,0.5,1.3,0.5,1.7,0l17.5-17.5c1.1-1.1,3-1.1,4.1,0c1.1,1.1,1.1,3,0,4.1L140.7-1.9
	c-0.5,0.5-0.5,1.3,0,1.7c0.5,0.5,1.3,0.5,1.7,0L156-13.7c1.1-1.1,3-1.1,4.1,0s1.1,3,0,4.1L146.6,4c-0.5,0.5-0.5,1.3,0,1.7
	c0.5,0.5,1.3,0.5,1.7,0l11.3-11.3c1.1-1.1,3-1.1,4.1,0c1.1,1.1,1.1,3,0,4.1l-12.9,12.9c-0.5,0.5-0.5,1.3,0,1.7
	c0.5,0.5,1.3,0.5,1.7,0l7.7-7.7c1.1-1.1,3-1.1,4.1,0C165.5,6.7,165.5,8.6,164.4,9.7z"/>
</svg>
